<svg width="310" height="310" viewBox="0 0 310 310" fill="none" xmlns="http://www.w3.org/2000/svg">
<rect width="310" height="310" fill="#F0B100"/>
<path d="M95.481 237.5H214.481" stroke="#733E0A" stroke-width="2.99953" stroke-linecap="round" stroke-linejoin="round"/>
<circle cx="152.99" cy="83" r="21" fill="#FFCB38"/>
<circle cx="51.9905" cy="107" r="21" fill="#DED3B5"/>
<g filter="url(#filter0_n_16_30)">
<circle cx="255.99" cy="107" r="21" fill="#C97E06" fill-opacity="0.51"/>
</g>
<g filter="url(#filter1_n_16_30)">
<path d="M149.517 92.6455C149.957 91.8442 150.604 91.1761 151.39 90.7108C152.176 90.2455 153.072 90 153.985 90C154.898 90 155.795 90.2455 156.581 90.7108C157.367 91.1761 158.014 91.8442 158.454 92.6455L188.57 149.92C189.289 151.246 190.291 152.396 191.506 153.288C192.72 154.181 194.117 154.792 195.595 155.079C197.074 155.367 198.598 155.322 200.057 154.95C201.517 154.577 202.876 153.886 204.037 152.924L247.671 115.477C248.508 114.795 249.541 114.396 250.619 114.339C251.697 114.282 252.765 114.568 253.671 115.158C254.576 115.748 255.271 116.61 255.655 117.621C256.04 118.631 256.095 119.738 255.812 120.782L226.899 225.498C226.309 227.641 225.038 229.533 223.278 230.887C221.518 232.24 219.365 232.982 217.146 233H90.8347C88.6141 232.984 86.4592 232.244 84.6971 230.89C82.935 229.536 81.662 227.643 81.0714 225.498L52.169 120.792C51.8859 119.748 51.9407 118.641 52.3255 117.631C52.7103 116.62 53.4053 115.758 54.3104 115.168C55.2155 114.579 56.284 114.292 57.3622 114.349C58.4404 114.407 59.4726 114.805 60.3102 115.488L103.934 152.935C105.095 153.896 106.454 154.587 107.914 154.96C109.373 155.333 110.897 155.377 112.375 155.09C113.854 154.802 115.251 154.191 116.465 153.299C117.68 152.407 118.682 151.256 119.4 149.93L149.517 92.6455Z" stroke="#643200" stroke-opacity="0.92" stroke-width="14" stroke-linecap="round" stroke-linejoin="round"/>
</g>
<path d="M149.517 92.6455C149.957 91.8442 150.604 91.1761 151.39 90.7108C152.176 90.2455 153.072 90 153.985 90C154.898 90 155.795 90.2455 156.581 90.7108C157.367 91.1761 158.014 91.8442 158.454 92.6455L188.57 149.92C189.289 151.246 190.291 152.396 191.506 153.288C192.72 154.181 194.117 154.792 195.595 155.079C197.074 155.367 198.598 155.322 200.057 154.95C201.517 154.577 202.876 153.886 204.037 152.924L247.671 115.477C248.508 114.795 249.541 114.396 250.619 114.339C251.697 114.282 252.765 114.568 253.671 115.158C254.576 115.748 255.271 116.61 255.655 117.621C256.04 118.631 256.095 119.738 255.812 120.782L226.899 225.498C226.309 227.641 225.038 229.533 223.278 230.887C221.518 232.24 219.365 232.982 217.146 233H90.8347C88.6141 232.984 86.4592 232.244 84.6971 230.89C82.935 229.536 81.662 227.643 81.0714 225.498L52.169 120.792C51.8859 119.748 51.9407 118.641 52.3255 117.631C52.7103 116.62 53.4053 115.758 54.3104 115.168C55.2155 114.579 56.284 114.292 57.3622 114.349C58.4404 114.407 59.4726 114.805 60.3102 115.488L103.934 152.935C105.095 153.896 106.454 154.587 107.914 154.96C109.373 155.333 110.897 155.377 112.375 155.09C113.854 154.802 115.251 154.191 116.465 153.299C117.68 152.407 118.682 151.256 119.4 149.93L149.517 92.6455Z" fill="#793D00" stroke="#643200" stroke-opacity="0.79" stroke-width="21" stroke-linecap="round" stroke-linejoin="round"/>
<circle cx="255.99" cy="107" r="21" fill="#C97E06" fill-opacity="0.51"/>
<circle cx="51.9905" cy="107" r="21" fill="#DED3B5" fill-opacity="0.2"/>
<circle cx="152.99" cy="83" r="21" fill="#FFCB38" fill-opacity="0.2"/>
<defs>
<filter id="filter0_n_16_30" x="234.99" y="86" width="42" height="42" filterUnits="userSpaceOnUse" color-interpolation-filters="sRGB">
<feFlood flood-opacity="0" result="BackgroundImageFix"/>
<feBlend mode="normal" in="SourceGraphic" in2="BackgroundImageFix" result="shape"/>
<feTurbulence type="fractalNoise" baseFrequency="2 2" stitchTiles="stitch" numOctaves="3" result="noise" seed="8265" />
<feColorMatrix in="noise" type="luminanceToAlpha" result="alphaNoise" />
<feComponentTransfer in="alphaNoise" result="coloredNoise1">
<feFuncA type="discrete" tableValues="1 1 1 1 1 1 1 1 1 1 1 1 1 1 1 1 1 1 1 1 1 1 1 1 1 1 1 1 1 1 1 1 1 1 1 1 1 1 1 1 1 1 1 1 1 1 1 1 1 1 1 0 0 0 0 0 0 0 0 0 0 0 0 0 0 0 0 0 0 0 0 0 0 0 0 0 0 0 0 0 0 0 0 0 0 0 0 0 0 0 0 0 0 0 0 0 0 0 0 0 "/>
</feComponentTransfer>
<feComposite operator="in" in2="shape" in="coloredNoise1" result="noise1Clipped" />
<feFlood flood-color="rgba(0, 0, 0, 0.25)" result="color1Flood" />
<feComposite operator="in" in2="noise1Clipped" in="color1Flood" result="color1" />
<feMerge result="effect1_noise_16_30">
<feMergeNode in="shape" />
<feMergeNode in="color1" />
</feMerge>
</filter>
<filter id="filter1_n_16_30" x="44.9905" y="83" width="218" height="157" filterUnits="userSpaceOnUse" color-interpolation-filters="sRGB">
<feFlood flood-opacity="0" result="BackgroundImageFix"/>
<feBlend mode="normal" in="SourceGraphic" in2="BackgroundImageFix" result="shape"/>
<feTurbulence type="fractalNoise" baseFrequency="0.1428571492433548 0.1428571492433548" stitchTiles="stitch" numOctaves="3" result="noise" seed="5711" />
<feColorMatrix in="noise" type="luminanceToAlpha" result="alphaNoise" />
<feComponentTransfer in="alphaNoise" result="coloredNoise1">
<feFuncA type="discrete" tableValues="1 1 1 1 1 1 1 1 1 1 1 1 1 1 1 1 1 1 1 1 1 1 1 1 1 1 1 1 1 1 1 1 1 1 1 1 1 1 1 1 1 1 1 1 1 1 1 1 1 1 1 0 0 0 0 0 0 0 0 0 0 0 0 0 0 0 0 0 0 0 0 0 0 0 0 0 0 0 0 0 0 0 0 0 0 0 0 0 0 0 0 0 0 0 0 0 0 0 0 0 "/>
</feComponentTransfer>
<feComposite operator="in" in2="shape" in="coloredNoise1" result="noise1Clipped" />
<feFlood flood-color="#F0B100" result="color1Flood" />
<feComposite operator="in" in2="noise1Clipped" in="color1Flood" result="color1" />
<feMerge result="effect1_noise_16_30">
<feMergeNode in="shape" />
<feMergeNode in="color1" />
</feMerge>
</filter>
</defs>
</svg>
